<svg xmlns="http://www.w3.org/2000/svg" version="1.1" xmlns:xlink="http://www.w3.org/1999/xlink" xmlns:svgjs="http://svgjs.dev/svgjs" viewBox="0 0 11.989044731121183 7.859289893895516"><g transform="matrix(0.826135537171407,0,0,0.826135537171407,1.7254600188103462,5.5944162816052785)"><g clip-path="url(#SvgjsClipPath2388)"><g clip-path="url(#SvgjsClipPath2386ab454b54-77dc-427e-b6ca-be7111b1d418)"><path d=" M 8.425626102090035 -4.447650010024977 L 7.913212999669038 -4.447650010024977 L 7.913212999669038 -0.9201119984524873 L 8.425626102090035 -0.9201119984524873 C 8.612113166355705 -0.9202913608987515 8.763178946087708 -1.071551063326174 8.763119069146436 -1.2580382042342464 L 8.763119069146436 -4.110590281693934 C 8.762760850969068 -4.296763771659602 8.61179989860182 -4.447530935898009 8.425626102090035 -4.447650010024977 Z" fill="#262626" transform="matrix(1,0,0,1,0,0)" fill-rule="nonzero"></path></g><g clip-path="url(#SvgjsClipPath2386ab454b54-77dc-427e-b6ca-be7111b1d418)"><path d=" M 1.5717894668753511 -4.110157042968575 L 1.5717894668753511 -1.2580382042342464 C 1.5719684825990226 -1.0717624629951796 1.722898450066618 -0.9207840428895517 1.9091741242504094 -0.9205452371778495 L 2.4216955363527477 -0.9205452371778495 L 2.4216955363527477 -4.4480832487503354 L 1.9091741242504103 -4.4480832487503354 C 1.722704564061101 -4.44790387442119 1.5716697721040642 -4.296626651016393 1.5717894668753511 -4.110157042968575 Z" fill="#262626" transform="matrix(1,0,0,1,0,0)" fill-rule="nonzero"></path></g><g clip-path="url(#SvgjsClipPath2386ab454b54-77dc-427e-b6ca-be7111b1d418)"><path d=" M 7.113779241696226 -4.447650010024977 L 2.505743849072826 -4.447650010024977 L 2.505743849072826 -0.9201119984524873 L 7.829164686948959 -0.9201119984524873 L 7.829164686948959 -4.447650010024977 L 7.114320790102927 -4.447650010024977 Z M 5.592894696315623 -3.8493473303011148 L 5.552278565813007 -3.819887096976551 L 5.601342851460166 -3.669011710869502 L 5.4729958790719015 -3.762266346503506 L 5.344757216364977 -3.669011710869502 L 5.393713192330797 -3.819887096976551 L 5.365011126775615 -3.8406825557938906 L 5.265474529623872 -3.9130334229292183 L 5.424039903106082 -3.9130334229292183 L 5.444835361923422 -3.976936134919998 L 5.444835361923422 -3.976936134919998 L 5.4729958790719015 -4.0635838799922475 L 5.5008314671763605 -3.978019231733406 L 5.5008314671763605 -3.978019231733406 L 5.522493403444423 -3.9130334229292214 L 5.6810587769266325 -3.9130334229292214 Z M 4.910543703871682 -3.913033422929215 L 5.069109077353893 -3.913033422929215 L 4.968056144663386 -3.8397077686618273 L 4.9407621049656285 -3.819887096976551 L 4.989826390612788 -3.669011710869502 L 4.861479418224523 -3.762266346503506 L 4.733240755517598 -3.669011710869502 L 4.782196731483418 -3.819887096976551 L 4.740605813848739 -3.850105498070497 L 4.653958068776493 -3.913033422929215 L 4.812523442258704 -3.913033422929215 L 4.834185378526765 -3.978885709184121 L 4.834185378526765 -3.978885709184121 L 4.861696037587204 -4.063800499354924 L 4.889964864417024 -3.977152754282675 L 4.889964864417024 -3.977152754282675 Z M 4.378634858809431 -3.6690117108694986 L 4.250287886421166 -3.7622663465035027 L 4.1220492237142405 -3.6690117108694986 L 4.17100519968006 -3.8198870969765477 L 4.042766536973136 -3.913033422929215 L 4.201331910455346 -3.913033422929215 L 4.241514802232601 -4.036939698382527 L 4.241514802232601 -4.036939698382527 L 4.250179576739825 -4.063908809036264 L 4.259819138379112 -4.034340266030359 L 4.259819138379112 -4.034340266030359 L 4.299243862386984 -3.913033422929215 L 4.4578092358691945 -3.913033422929215 L 4.411344382574202 -3.8793491120323775 L 4.32957057316227 -3.8198870969765477 Z M 3.1562517952027154 -1.3247569679398743 L 3.02790482281445 -1.41790329389254 L 2.8996661601075258 -1.3247569679398743 L 2.948622136073345 -1.4755240443655837 L 2.82038347336642 -1.568778679999589 L 2.978948846848631 -1.568778679999589 L 3.02790482281445 -1.7195457564252967 L 3.0769691084616095 -1.568778679999589 L 3.2355344819438203 -1.568778679999589 L 3.107295819236896 -1.4755240443655837 Z M 3.107295819236896 -3.8198870969765477 L 3.1562517952027154 -3.6690117108694986 L 3.02790482281445 -3.7622663465035027 L 2.8996661601075258 -3.6690117108694986 L 2.948622136073345 -3.8198870969765477 L 2.82038347336642 -3.913033422929215 L 2.978948846848631 -3.913033422929215 L 3.02790482281445 -4.063908809036264 L 3.0769691084616095 -3.913033422929215 L 3.2355344819438203 -3.913033422929215 Z M 3.7674433270060725 -1.3247569679398743 L 3.6390963546178074 -1.41790329389254 L 3.5108576919108834 -1.3247569679398743 L 3.559813667876702 -1.4755240443655837 L 3.431575005169778 -1.568778679999589 L 3.5901403786519883 -1.568778679999589 L 3.6390963546178074 -1.7195457564252967 L 3.6881606402649676 -1.568778679999589 L 3.846726013747178 -1.568778679999589 L 3.718487351040254 -1.4755240443655837 Z M 3.718487351040254 -3.8198870969765477 L 3.7674433270060725 -3.6690117108694986 L 3.6390963546178074 -3.7622663465035027 L 3.5108576919108834 -3.6690117108694986 L 3.559813667876702 -3.8198870969765477 L 3.431575005169778 -3.913033422929215 L 3.5901403786519883 -3.913033422929215 L 3.634655657682855 -4.050153479506043 L 3.6390963546178074 -4.063908809036264 L 3.645053387091524 -4.045821092252431 L 3.6883772596276474 -3.913033422929215 L 3.8469426331098586 -3.913033422929215 Z M 4.378634858809431 -1.3247569679398743 L 4.250287886421166 -1.41790329389254 L 4.1220492237142405 -1.3247569679398743 L 4.17100519968006 -1.4755240443655837 L 4.042766536973136 -1.568778679999589 L 4.201331910455346 -1.568778679999589 L 4.250287886421166 -1.7195457564252967 L 4.299352172068325 -1.568778679999589 L 4.457917545550536 -1.568778679999589 L 4.329678882843611 -1.4755240443655837 Z M 4.989826390612788 -1.3247569679398743 L 4.861479418224523 -1.41790329389254 L 4.733240755517598 -1.3247569679398743 L 4.782196731483418 -1.4755240443655837 L 4.653958068776493 -1.568778679999589 L 4.812523442258704 -1.568778679999589 L 4.861479418224523 -1.7195457564252967 L 4.910543703871682 -1.568778679999589 L 5.069109077353893 -1.568778679999589 L 4.9407621049656285 -1.4755240443655837 Z M 5.601017922416146 -1.3247569679398743 L 5.47267095002788 -1.41790329389254 L 5.344432287320957 -1.3247569679398743 L 5.393388263286775 -1.4755240443655837 L 5.265149600579851 -1.568778679999589 L 5.423714974062062 -1.568778679999589 L 5.47267095002788 -1.7195457564252967 L 5.52173523567504 -1.568778679999589 L 5.680300609157251 -1.568778679999589 L 5.551953636768986 -1.4755240443655837 Z M 6.212209454219503 -1.3247569679398743 L 6.083862481831239 -1.41790329389254 L 5.955623819124314 -1.3247569679398743 L 6.004579795090134 -1.4755240443655837 L 5.8763411323832075 -1.568778679999589 L 6.034906505865419 -1.568778679999589 L 6.083862481831239 -1.7195457564252967 L 6.132926767478398 -1.568778679999589 L 6.291492140960608 -1.568778679999589 L 6.163145168572343 -1.4755240443655837 Z M 6.163145168572343 -3.8198870969765477 L 6.212209454219503 -3.6690117108694986 L 6.083862481831239 -3.7622663465035027 L 5.955623819124314 -3.6690117108694986 L 6.004579795090134 -3.8198870969765477 L 5.923997392172945 -3.8783743249003146 L 5.8763411323832075 -3.913033422929212 L 6.034906505865419 -3.913033422929212 L 6.07400630082927 -4.033365478898294 L 6.07400630082927 -4.033365478898294 L 6.083862481831239 -4.063800499354921 L 6.092743875701143 -4.036506459657161 L 6.092743875701143 -4.036506459657161 L 6.1328184577970575 -3.913033422929212 L 6.291383831279268 -3.913033422929212 Z M 6.8238342247482215 -1.3247569679398743 L 6.695487252359957 -1.41790329389254 L 6.567248589653032 -1.3247569679398743 L 6.616204565618851 -1.4755240443655837 L 6.4879659029119265 -1.568778679999589 L 6.646531276394138 -1.568778679999589 L 6.695487252359957 -1.7195457564252967 L 6.744551538007117 -1.568778679999589 L 6.903116911489327 -1.568778679999589 L 6.774769939101062 -1.4755240443655837 Z M 6.774769939101062 -3.8198870969765477 L 6.8238342247482215 -3.6690117108694986 L 6.695487252359957 -3.7622663465035027 L 6.567248589653032 -3.6690117108694986 L 6.616204565618851 -3.8198870969765477 L 6.4879659029119265 -3.913033422929215 L 6.646531276394138 -3.913033422929215 L 6.688122194028816 -4.041272085636139 L 6.695487252359957 -4.063908809036264 L 6.701119355789653 -4.046579260021816 L 6.744443228325776 -3.913033422929215 L 6.903008601807987 -3.913033422929215 Z M 7.4354589952769405 -1.3247569679398743 L 7.307112022888676 -1.41790329389254 L 7.178873360181751 -1.3247569679398743 L 7.22782933614757 -1.4755240443655837 L 7.099590673440646 -1.568778679999589 L 7.258156046922856 -1.568778679999589 L 7.307112022888676 -1.7195457564252967 L 7.356176308535835 -1.568778679999589 L 7.514741682018046 -1.568778679999589 L 7.386394709629782 -1.4755240443655837 Z M 7.258156046922856 -3.9133583519732347 L 7.307112022888676 -4.064233738080284 L 7.356176308535835 -3.9133583519732347 L 7.514741682018046 -3.9133583519732347 L 7.386394709629781 -3.820212026020567 L 7.4354589952769405 -3.669336639913518 L 7.307112022888676 -3.762591275547522 L 7.178873360181751 -3.669336639913518 L 7.22782933614757 -3.820212026020567 L 7.0995906734406455 -3.9133583519732347 Z" fill="#262626" transform="matrix(1,0,0,1,0,0)" fill-rule="nonzero"></path></g><g clip-path="url(#SvgjsClipPath2386ab454b54-77dc-427e-b6ca-be7111b1d418)"><path d=" M 9.642593681629736 -4.2893012559054435 L 9.642593681629736 -4.451765777915906 C 9.488111312092109 -4.451447149259142 9.338365872475368 -4.5050781585872155 9.21921113727047 -4.603399331792341 C 9.169770475163787 -4.644436990869662 9.126442606755388 -4.692323767991065 9.090539235838186 -4.745609943392162 C 9.016233230789444 -4.855480093400786 8.976615566735072 -4.985124182630142 8.976814070430862 -5.117762008477462 L 1.3580944655909235 -5.117762008477462 C 1.358229954913111 -5.017854619026651 1.335753938063116 -4.919211935520276 1.2923504890173378 -4.829225017386839 C 1.278368473442554 -4.800224592220006 1.2622962645077305 -4.7722792199279285 1.2442609905022595 -4.745609943392162 C 1.2203481257134787 -4.710240611311667 1.1931108634662628 -4.677236738282419 1.1629204198156884 -4.647048133372484 C 1.1327318149057535 -4.616857689721908 1.099727941876505 -4.589620427474692 1.0643586097960076 -4.565707562685911 C 0.9545306399716207 -4.491397976956992 0.8249197415040713 -4.451778925023676 0.6923148543920501 -4.451982397278585 L 0.6923148543920501 -4.2895178752681264 C 0.7255502735123766 -4.289517875268129 0.7574244563929642 -4.276315156429428 0.7809254466285253 -4.252814166193865 C 0.8044264368640863 -4.2293131759583025 0.8176291557027847 -4.19743899307772 0.8176291557027847 -4.1642035739573915 C 0.8176578974430545 -4.130949392896095 0.804467868048868 -4.099047377886367 0.78096376187784 -4.075522957016824 C 0.7574596557068104 -4.051998536147281 0.7255690478741949 -4.0387809505445125 0.6923148543920755 -4.03878096296531 L 0.6923148543920755 -3.8666768793155626 L 0.6923148543920501 -3.8666768793155626 C 0.7255690478741694 -3.86667689173637 0.7574596557067882 -3.853459306133607 0.7809637618778226 -3.8299348852640684 C 0.8044678680488553 -3.8064104643945287 0.8176578974430482 -3.774508449384805 0.8176291557027863 -3.741254268323491 C 0.8176291557027847 -3.7080188492031567 0.8044264368640863 -3.6761446663225694 0.7809254466285253 -3.65264367608701 C 0.7574244563929626 -3.629142685851449 0.7255502735123766 -3.6159399670127472 0.6923148543920469 -3.6159399670127472 L 0.6923148543920469 -3.443835883363001 C 0.761541548389156 -3.4437761020851054 0.8176291815150865 -3.3876399921803264 0.8176291557027847 -3.318413272370923 C 0.8176291815329777 -3.2491865525939385 0.7615415484215551 -3.1930504426746644 0.6923148544244635 -3.1929906613788774 L 0.6923148543920501 -3.1929906613788774 L 0.6923148543920501 -3.020886577729099 C 0.7615240319416701 -3.020886577729099 0.8176291557027847 -2.9647814539679844 0.8176291557027847 -2.895572276418363 C 0.8176578974430465 -2.8623180953570384 0.8044678680488506 -2.8304160803473146 0.7809637618778162 -2.806891659477778 C 0.7574596557067819 -2.7833672386082413 0.7255690478741599 -2.7701496530054777 0.6923148543920405 -2.770149665426287 L 0.6923148543920405 -2.5980455817765375 C 0.7255690478741694 -2.5980455941973433 0.7574596557067882 -2.5848280085945783 0.7809637618778226 -2.56130358772504 C 0.8044678680488553 -2.5377791668555 0.8176578974430482 -2.5058771518457763 0.8176291557027863 -2.4726229707844616 C 0.8176291557027847 -2.40341379323484 0.7615240319416701 -2.3473086694737253 0.6923148543920485 -2.3473086694737253 L 0.6923148543920485 -2.1752045858239755 C 0.761541548389156 -2.1751448045460786 0.8176291815150865 -2.119008694641301 0.8176291557027847 -2.049781974831898 C 0.8176291815329777 -1.9805552550549117 0.7615415484215551 -1.924419145135639 0.6923148544244635 -1.9243593638398524 L 0.6923148544244635 -1.7522552801900741 L 0.6923148543920501 -1.7522552801900741 C 0.7256631756548166 -1.7522557286077247 0.7576362393277358 -1.7389638401706193 0.7811559998905946 -1.7153221102357854 C 0.8046757604534501 -1.6916803803009515 0.8178020942776221 -1.6596389936394247 0.8176291557027879 -1.626291120791294 C 0.8176578974430497 -1.5930369397299682 0.8044678680488537 -1.5611349247202444 0.7809637618778194 -1.5376105038507077 C 0.757459655706785 -1.5140860829811706 0.7255690478741631 -1.5008684973784074 0.6923148543920438 -1.5008685097992167 L 0.6923148543920438 -1.3287644261494687 C 0.7613551941212396 -1.3287648387478148 0.8173904682719376 -1.2729232906961672 0.8176291557027879 -1.2038833635640933 C 0.8176291557027879 -1.1346741860144731 0.7615240319416716 -1.0785690622533588 0.6923148543920516 -1.0785690622533588 L 0.6923148543920516 -0.9161045402428947 L 0.6923148543920516 -0.9161045402428947 C 0.7758327315078075 -0.9162017703920329 0.8586198697960764 -0.9005482768674868 0.9363365664517647 -0.8699646159919219 C 0.9613971582224616 -0.8600126744202781 0.9858458151764224 -0.8485840122938697 1.009553911037811 -0.8357387566883885 C 1.0283997955910258 -0.8254854401881726 1.0466680285104253 -0.8143656462372313 1.0643586097960092 -0.8023793748355708 C 1.117461876547372 -0.7664865477253562 1.1651354022932174 -0.7231536107811571 1.205919363307792 -0.673707473403284 C 1.2194580734753302 -0.6572444018395576 1.232346925554828 -0.6401314721877895 1.244260990502261 -0.6224769941293182 C 1.2622962645077305 -0.5958077175935514 1.278368473442554 -0.5678623453014735 1.2923504890173585 -0.5388619201345985 C 1.3357539380631294 -0.44887500200116204 1.358229954913119 -0.3502323184947862 1.358094465590925 -0.25032492904402126 L 8.976814070430864 -0.25032492904402126 C 8.976615566735054 -0.3829627548912473 9.01623323078941 -0.5126068441206098 9.090539235838135 -0.6224769941292436 C 9.114452100626965 -0.6578463262098131 9.14168936287418 -0.6908501992390628 9.171879806524757 -0.7210388041489981 C 9.202091341485573 -0.7512040085999621 9.235092715193685 -0.7784392082206137 9.270441616544437 -0.802379374835569 C 9.288204404284247 -0.8142934397830031 9.30650874043076 -0.8254132337339426 9.325354624983973 -0.8357387566883849 C 9.34905251103679 -0.8486042561797982 9.373502393565236 -0.8600334912078882 9.398571969570021 -0.8699646159919237 C 9.476288666225711 -0.9005482768674868 9.55907580451398 -0.9162017703920329 9.642593681629736 -0.9161045402428929 L 9.642593681629736 -0.9161045402428929 L 9.642593681629736 -1.0785690622533552 C 9.573366961820332 -1.0785690364410536 9.517230851915555 -1.134656669566986 9.517171070637659 -1.2038833635640933 C 9.517171070637659 -1.237147508197923 9.530385200642165 -1.2690492400697635 9.553906502883114 -1.292570542310715 C 9.577427805124067 -1.3160918445516647 9.609329536995906 -1.329305974556171 9.642593681629736 -1.329305974556171 L 9.642593681629736 -1.5014100582059187 C 9.573535624148834 -1.5014094144677381 9.51746924877578 -1.557233707045572 9.517171070637659 -1.6262911207912927 C 9.517230851915546 -1.695517814788384 9.573366961820316 -1.7516054479143208 9.64259368162972 -1.751605422102029 L 9.642593681629736 -1.751605422102029 L 9.642593681629736 -1.9237095057517797 C 9.573349437836217 -1.9237692248396714 9.51723078972555 -1.9798878729503384 9.517171070637659 -2.049132116743856 C 9.517230789725549 -2.11837636053737 9.573349437836212 -2.174495008648039 9.642593681629732 -2.174554727735932 L 9.642593681629732 -2.3466588113856814 C 9.573366961820334 -2.346658785573381 9.517230851915555 -2.4027464186993117 9.517171070637659 -2.4719731126964195 C 9.517171070637659 -2.5052372573302475 9.530385200642165 -2.537138989202088 9.553906502883114 -2.5606602914430394 C 9.577427805124067 -2.584181593683989 9.609329536995906 -2.5973957236884955 9.642593681629736 -2.5973957236884955 L 9.642593681629736 -2.769499807338243 C 9.609329536995906 -2.7694998073382417 9.577427805124067 -2.7827139373427476 9.553906502883114 -2.806235239583698 C 9.530385200642165 -2.829756541824649 9.517171070637659 -2.8616582736964893 9.517171070637659 -2.8949224183303177 C 9.517230851915546 -2.964149112327409 9.573366961820316 -3.0202367454533463 9.64259368162972 -3.020236719641054 L 9.64259368162972 -3.192340803290805 L 9.642593681629736 -3.192340803290805 C 9.573349437836217 -3.192400522378697 9.51723078972555 -3.2485191704893635 9.517171070637659 -3.317763414282881 C 9.517230789725549 -3.387007658076397 9.573349437836212 -3.443126306187064 9.642593681629732 -3.443186025274959 L 9.642593681629732 -3.6152901089247083 C 9.573366961820332 -3.6152900831124084 9.517230851915555 -3.6713777162383403 9.517171070637659 -3.740604410235446 C 9.517171070637659 -3.809873405570326 9.57332468629485 -3.866027021227519 9.642593681629734 -3.866027021227519 L 9.642593681629736 -3.866027021227519 L 9.642593681629736 -4.038131104877271 C 9.573324686294852 -4.038131104877275 9.517171070637659 -4.094284720534465 9.517171070637659 -4.163553715869349 C 9.517084748049912 -4.196874122849794 9.530260760204726 -4.228859393180647 9.55379142514765 -4.252451018395448 C 9.577322090090576 -4.276042643610241 9.609273162832471 -4.289301367722455 9.642593681629737 -4.2893012559054435 Z M 8.847167381866512 -1.2580382042342464 C 8.847167871964215 -1.0250868036866336 8.658577012520212 -0.8361082960288826 8.425626102082095 -0.8356304470070297 L 1.9091741242504103 -0.8356304470070297 C 1.6766033309510924 -0.8361666622287789 1.4882176055691296 -1.0246008033715697 1.4877411541552725 -1.2571717267835227 L 1.4877411541552725 -4.109723804243212 C 1.4882771423678918 -4.342252431253888 1.676645497239761 -4.530620786125745 1.9091741242504237 -4.531156774338348 L 8.425626102090035 -4.531156774338348 C 8.658197025501988 -4.530680322924494 8.84663116664478 -4.342294597542532 8.847167381866512 -4.109723804243212 Z" fill="#262626" transform="matrix(1,0,0,1,0,0)" fill-rule="nonzero"></path></g></g><g><path d=" M 0.8505 0.8189999999999998 L 0.8505 1.0739999999999998 L 0.0915 1.0739999999999998 L 0.0915 0.008999999999999897 L 0.837 0.008999999999999897 L 0.837 0.2639999999999998 L 0.384 0.2639999999999998 L 0.384 0.4139999999999998 L 0.771 0.4139999999999998 L 0.771 0.6509999999999998 L 0.384 0.6509999999999998 L 0.384 0.8189999999999998 L 0.8505 0.8189999999999998 M 1.315477294921875 0.5504999999999999 L 1.315477294921875 1.0739999999999998 L 1.022977294921875 1.0739999999999998 L 1.022977294921875 0.008999999999999897 L 1.2509772949218751 0.008999999999999897 L 1.678477294921875 0.5504999999999999 L 1.678477294921875 0.008999999999999897 L 1.9709772949218751 0.008999999999999897 L 1.9709772949218751 1.0739999999999998 L 1.738477294921875 1.0739999999999998 L 1.315477294921875 0.5504999999999999 M 3.0195197753906253 0.2639999999999998 L 2.7135197753906253 0.2639999999999998 L 2.7135197753906253 1.0739999999999998 L 2.421019775390625 1.0739999999999998 L 2.421019775390625 0.2639999999999998 L 2.113519775390625 0.2639999999999998 L 2.113519775390625 0.008999999999999897 L 3.0195197753906253 0.008999999999999897 L 3.0195197753906253 0.2639999999999998 M 3.921054931640625 0.8189999999999998 L 3.921054931640625 1.0739999999999998 L 3.162054931640625 1.0739999999999998 L 3.162054931640625 0.008999999999999897 L 3.9075549316406253 0.008999999999999897 L 3.9075549316406253 0.2639999999999998 L 3.454554931640625 0.2639999999999998 L 3.454554931640625 0.4139999999999998 L 3.841554931640625 0.4139999999999998 L 3.841554931640625 0.6509999999999998 L 3.454554931640625 0.6509999999999998 L 3.454554931640625 0.8189999999999998 L 3.921054931640625 0.8189999999999998 M 4.0935322265625 1.0739999999999998 L 4.0935322265625 0.008999999999999897 L 4.5825322265625 0.008999999999999897 Q 4.6605322265625 0.008999999999999897 4.7265322265625 0.04049999999999976 Q 4.7925322265625 0.07199999999999984 4.8405322265625 0.12524999999999986 Q 4.8885322265625 0.17849999999999977 4.9147822265625 0.24449999999999983 Q 4.9410322265625 0.3104999999999998 4.9410322265625 0.3779999999999998 Q 4.9410322265625 0.4394999999999998 4.9230322265625 0.49649999999999983 Q 4.905032226562501 0.5534999999999999 4.8705322265625 0.6007499999999999 Q 4.8360322265625 0.6479999999999999 4.7880322265625 0.6824999999999999 L 5.0130322265625 1.0739999999999998 L 4.6920322265625005 1.0739999999999998 L 4.5045322265625005 0.7469999999999999 L 4.3860322265625005 0.7469999999999999 L 4.3860322265625005 1.0739999999999998 L 4.0935322265625 1.0739999999999998 M 4.3860322265625005 0.4919999999999999 L 4.5705322265625 0.4919999999999999 Q 4.5885322265625 0.4919999999999999 4.6050322265625 0.4784999999999998 Q 4.6215322265625005 0.46499999999999986 4.6327822265625 0.4394999999999998 Q 4.6440322265625005 0.4139999999999998 4.6440322265625005 0.3779999999999998 Q 4.6440322265625005 0.3404999999999998 4.6312822265625 0.31574999999999986 Q 4.6185322265625 0.2909999999999998 4.5997822265625 0.27749999999999986 Q 4.5810322265625 0.2639999999999998 4.5630322265625 0.2639999999999998 L 4.3860322265625005 0.2639999999999998 L 4.3860322265625005 0.4919999999999999 M 5.787013916015625 0.3569999999999999 Q 5.787013916015625 0.3569999999999999 5.761513916015625 0.34199999999999986 Q 5.736013916015625 0.32699999999999985 5.694013916015624 0.3082499999999998 Q 5.652013916015624 0.28949999999999987 5.602513916015624 0.27449999999999986 Q 5.553013916015625 0.25949999999999984 5.505013916015625 0.25949999999999984 Q 5.4675139160156245 0.25949999999999984 5.4435139160156245 0.27149999999999985 Q 5.4195139160156245 0.28349999999999986 5.4195139160156245 0.31199999999999983 Q 5.4195139160156245 0.33899999999999986 5.4435139160156245 0.3554999999999998 Q 5.4675139160156245 0.3719999999999998 5.511763916015624 0.38549999999999984 Q 5.556013916015624 0.3989999999999998 5.617513916015625 0.41849999999999987 Q 5.716513916015625 0.4484999999999998 5.788513916015624 0.4874999999999998 Q 5.860513916015625 0.5264999999999999 5.899513916015625 0.5872499999999998 Q 5.938513916015625 0.6479999999999999 5.938513916015625 0.7484999999999998 Q 5.938513916015625 0.8444999999999998 5.904013916015625 0.9097499999999998 Q 5.869513916015625 0.9749999999999999 5.811013916015625 1.0139999999999998 Q 5.752513916015625 1.053 5.680513916015625 1.07025 Q 5.6085139160156245 1.0875 5.533513916015624 1.0875 Q 5.457013916015625 1.0875 5.3737639160156245 1.0717499999999998 Q 5.290513916015625 1.0559999999999998 5.212513916015625 1.0282499999999999 Q 5.134513916015624 1.0005 5.070013916015625 0.9629999999999999 L 5.196013916015625 0.7064999999999999 Q 5.196013916015625 0.7064999999999999 5.226013916015625 0.7244999999999998 Q 5.2560139160156245 0.7424999999999998 5.305513916015625 0.7649999999999999 Q 5.355013916015625 0.7874999999999999 5.415763916015624 0.8054999999999999 Q 5.476513916015625 0.8234999999999999 5.5380139160156245 0.8234999999999999 Q 5.586013916015625 0.8234999999999999 5.604763916015624 0.8107499999999999 Q 5.623513916015625 0.7979999999999998 5.623513916015625 0.7769999999999999 Q 5.623513916015625 0.7454999999999998 5.590513916015625 0.7282499999999998 Q 5.557513916015624 0.7109999999999999 5.504263916015625 0.6952499999999998 Q 5.451013916015625 0.6794999999999998 5.386513916015625 0.6584999999999999 Q 5.293513916015625 0.6269999999999998 5.2335139160156245 0.5872499999999998 Q 5.173513916015625 0.5474999999999999 5.145013916015625 0.4927499999999998 Q 5.1165139160156246 0.43799999999999983 5.1165139160156246 0.3599999999999999 Q 5.1165139160156246 0.24149999999999983 5.172013916015625 0.1619999999999998 Q 5.227513916015624 0.0824999999999998 5.318263916015625 0.04124999999999979 Q 5.409013916015625 -2.220446049250313e-16 5.5140139160156245 -2.220446049250313e-16 Q 5.592013916015625 -2.220446049250313e-16 5.664763916015625 0.018749999999999822 Q 5.737513916015625 0.03749999999999987 5.801263916015625 0.06449999999999978 Q 5.8650139160156245 0.0914999999999998 5.9130139160156245 0.11549999999999983 L 5.787013916015625 0.3569999999999999 M 6.9090205078124995 1.0739999999999998 L 6.9090205078124995 0.5129999999999998 L 6.730520507812499 0.9074999999999999 L 6.574520507812499 0.9074999999999999 L 6.3960205078125 0.5129999999999998 L 6.3960205078125 1.0739999999999998 L 6.103520507812499 1.0739999999999998 L 6.103520507812499 0.008999999999999897 L 6.423020507812499 0.008999999999999897 L 6.6525205078125 0.5099999999999998 L 6.8835205078124995 0.008999999999999897 L 7.201520507812499 0.008999999999999897 L 7.201520507812499 1.0739999999999998 L 6.9090205078124995 1.0739999999999998 M 7.666526367187499 0.008999999999999897 L 7.993526367187499 0.008999999999999897 L 8.3325263671875 1.0739999999999998 L 8.035526367187499 1.0739999999999998 L 7.971026367187499 0.8654999999999998 L 7.687526367187499 0.8654999999999998 L 7.6245263671874985 1.0739999999999998 L 7.326026367187499 1.0739999999999998 L 7.666526367187499 0.008999999999999897 M 7.924526367187499 0.6704999999999999 L 7.830026367187499 0.2954999999999999 L 7.731026367187499 0.6704999999999999 L 7.924526367187499 0.6704999999999999 M 8.457014648437498 1.0739999999999998 L 8.457014648437498 0.008999999999999897 L 8.9460146484375 0.008999999999999897 Q 9.024014648437499 0.008999999999999897 9.0900146484375 0.04049999999999976 Q 9.156014648437498 0.07199999999999984 9.204014648437498 0.12524999999999986 Q 9.252014648437498 0.17849999999999977 9.2782646484375 0.24449999999999983 Q 9.304514648437499 0.3104999999999998 9.304514648437499 0.3779999999999998 Q 9.304514648437499 0.4394999999999998 9.286514648437498 0.49649999999999983 Q 9.268514648437499 0.5534999999999999 9.234014648437498 0.6007499999999999 Q 9.199514648437498 0.6479999999999999 9.151514648437498 0.6824999999999999 L 9.3765146484375 1.0739999999999998 L 9.055514648437498 1.0739999999999998 L 8.868014648437498 0.7469999999999999 L 8.749514648437499 0.7469999999999999 L 8.749514648437499 1.0739999999999998 L 8.457014648437498 1.0739999999999998 M 8.749514648437499 0.4919999999999999 L 8.934014648437499 0.4919999999999999 Q 8.952014648437498 0.4919999999999999 8.968514648437498 0.4784999999999998 Q 8.985014648437499 0.46499999999999986 8.9962646484375 0.4394999999999998 Q 9.007514648437498 0.4139999999999998 9.007514648437498 0.3779999999999998 Q 9.007514648437498 0.3404999999999998 8.9947646484375 0.31574999999999986 Q 8.982014648437499 0.2909999999999998 8.963264648437498 0.27749999999999986 Q 8.944514648437499 0.2639999999999998 8.926514648437498 0.2639999999999998 L 8.749514648437499 0.2639999999999998 L 8.749514648437499 0.4919999999999999 M 10.319981689453122 0.2639999999999998 L 10.013981689453123 0.2639999999999998 L 10.013981689453123 1.0739999999999998 L 9.721481689453123 1.0739999999999998 L 9.721481689453123 0.2639999999999998 L 9.413981689453124 0.2639999999999998 L 9.413981689453124 0.008999999999999897 L 10.319981689453122 0.008999999999999897 L 10.319981689453122 0.2639999999999998" fill="#262626" fill-rule="nonzero"></path></g><g></g></g><defs><clipPath id="SvgjsClipPath2388"><path d=" M 0.6923148543920501 -5.117762008477459 h 8.950387136919025 v 4.867762008477459 h -8.950387136919025 Z"></path></clipPath><clipPath id="SvgjsClipPath2386ab454b54-77dc-427e-b6ca-be7111b1d418"><path d=" M 0.6923148543920501 -5.117762008477459 L 9.642701991311075 -5.117762008477459 L 9.642701991311075 -0.25 L 0.6923148543920501 -0.25 Z"></path></clipPath></defs></svg>